<svg xmlns="http://www.w3.org/2000/svg" width="5.836" height="4.733" viewBox="0 0 5.836 4.733">
  <g id="Group_8" data-name="Group 8" transform="translate(-154.633 -768.793)">
    <g id="Group_7" data-name="Group 7">
      <path id="Path_14" data-name="Path 14" d="M156.888,769.782c.092,0,.18,0,.268,0h3.273c.034,0,.04.007.04.041v2.909c0,.034-.006.041-.04.041h-1.924v.556h.7c.038,0,.045.006.045.045v.1c0,.033-.008.041-.041.041h-1.6c-.042,0-.046,0-.046-.045v-.1c0-.034.006-.04.041-.04h.7c0-.01,0-.019,0-.027,0-.168,0-.336,0-.5,0-.021-.007-.027-.027-.027h-1.4v.708c0,.039-.005.044-.043.044H154.7c-.069,0-.069,0-.069-.068v-4.62c0-.035.008-.042.042-.042.529,0,1.058,0,1.587,0,.063,0,.126,0,.189,0s.132,0,.2,0h.2c.04,0,.045,0,.045.044v.943Zm-.349.192v2.608h3.152a.628.628,0,0,1,.075,0,.138.138,0,0,1,.027.012.148.148,0,0,1,.041-.011h.444v-2.608Zm.157,2.8h-.309c-.036,0-.041-.006-.041-.043v-2.9c0-.039.005-.045.044-.045.093,0,.186,0,.279,0h.027v-.795h-1.869v4.347H156.7Z" fill="#fff"/>
      <path id="Path_15" data-name="Path 15" d="M155.761,769.5h.559c.035,0,.043.008.043.042v.11c0,.031-.009.04-.04.04H155.2c-.036,0-.043-.007-.043-.043v-.1c0-.042,0-.046.045-.046Z" fill="#fff"/>
      <path id="Path_16" data-name="Path 16" d="M155.872,772.464c-.013.036-.043.027-.068.027h-.466c-.034,0-.04-.007-.041-.041s0-.073,0-.11.007-.041.041-.041h.851c.026,0,.033.009.034.035,0,.041,0,.082,0,.122s-.007.035-.034.035l-.229,0c-.023,0-.047,0-.071,0S155.867,772.486,155.872,772.464Z" fill="#fff"/>
      <path id="Path_17" data-name="Path 17" d="M155.762,772.851h-.424c-.034,0-.04-.007-.041-.041s0-.073,0-.109.006-.04.038-.04l.317,0,.525,0c.043,0,.046,0,.046.044v.1c0,.035-.006.041-.041.041Z" fill="#fff"/>
      <path id="Path_18" data-name="Path 18" d="M155.16,771.257a.191.191,0,1,1,.194.191A.19.19,0,0,1,155.16,771.257Z" fill="#fff"/>
      <path id="Path_19" data-name="Path 19" d="M155.255,771.748a.1.1,0,0,1,.1-.1.094.094,0,0,1,.094.1.1.1,0,0,1-.191,0Z" fill="#fff"/>
    </g>
  </g>
</svg>
