<svg xmlns="http://www.w3.org/2000/svg" width="3.913" height="6.424" viewBox="0 0 3.913 6.424">
  <g id="Group_12" data-name="Group 12" transform="translate(-120.903 -768.08)">
    <g id="Group_11" data-name="Group 11">
      <path id="Path_21" data-name="Path 21" d="M122.744,772.686l-.014-.087-.042,0h-1.512c-.082,0-.109.035-.089.112.117.462.234.924.354,1.385a.148.148,0,0,0,.047.069.109.109,0,0,1,.042.086c0,.025,0,.05,0,.078h.654l-.061.177h-.6a.151.151,0,0,1-.168-.171.1.1,0,0,0-.024-.071.281.281,0,0,1-.055-.1q-.185-.711-.364-1.425a.243.243,0,0,1,.228-.313l.019,0c.046-.162.092-.325.137-.488.032-.118.063-.236.094-.355a.4.4,0,0,1,.165-.233,1.092,1.092,0,0,1,.437-.166c.067-.013.135-.021.2-.03a.35.35,0,0,1,.046,0,.087.087,0,0,1,.013.174c-.1.017-.207.027-.308.051a1.385,1.385,0,0,0-.237.088.291.291,0,0,0-.161.21c-.061.242-.13.483-.2.724l-.007.031h.578c.007.057.037.093.074.09s.052-.033.046-.089h.652c.023,0,.035,0,.039-.03.027-.162.054-.324.082-.488-.041-.02-.046-.057-.045-.1s0-.085,0-.134l.045.036c.015-.042-.079-.055-.017-.1l.067.056a.1.1,0,0,0-.093-.08.256.256,0,0,1-.125-.054.3.3,0,0,1-.081-.257c0-.008.012-.018.021-.023.074-.044.148-.088.223-.13a.1.1,0,0,1,.1,0c.069.042.141.08.209.122a.063.063,0,0,1,.029.044.9.9,0,0,1-.03.171.172.172,0,0,1-.108.109l-.076.031c0,.042.008.079.01.116a.815.815,0,0,1,0,.121.175.175,0,0,1-.023.055c-.005.012-.017.025-.015.036.026.16.054.32.082.481l.005.013h1.377a.268.268,0,0,0-.005-.032c-.069-.255-.14-.509-.208-.764a.247.247,0,0,0-.114-.148.974.974,0,0,0-.391-.134c-.089-.015-.18-.02-.269-.03-.073-.007-.11-.052-.093-.112a.077.077,0,0,1,.082-.064,1.666,1.666,0,0,1,.733.17.455.455,0,0,1,.231.3c.066.262.141.52.212.781.006.025.018.033.044.036a.243.243,0,0,1,.213.31c-.121.474-.241.948-.364,1.422a.263.263,0,0,1-.049.1.127.127,0,0,0-.032.09.145.145,0,0,1-.158.159H122.78l-.023,0-.064-.172h1.493a.329.329,0,0,0,0-.041.127.127,0,0,1,.061-.138.088.088,0,0,0,.028-.05l.3-1.191.054-.21c.016-.065-.011-.1-.081-.1h-1.5c-.077,0-.077,0-.079.092h.183c.361,0,.722,0,1.082,0a.233.233,0,0,1,.2.069.2.2,0,0,1,.043.188q-.123.491-.25.981a.212.212,0,0,1-.206.158h-2.336a.2.2,0,0,1-.206-.16c-.083-.323-.163-.646-.249-.968a.212.212,0,0,1,.214-.27c.416.005.833,0,1.249,0Zm.114.176h-1.4c-.053,0-.06.009-.048.058.08.313.161.627.24.94.009.035.023.051.059.049s.081,0,.121,0H124c.039,0,.061-.008.071-.05.077-.309.157-.617.235-.925.017-.068.014-.072-.055-.072Zm.042-1.322.016,0a.542.542,0,0,0-.009-.056s-.018-.007-.025-.005a.049.049,0,0,0-.038.057.068.068,0,0,0,.066.058.052.052,0,0,0,.053-.037.443.443,0,0,1-.083,0s0-.028-.007-.043l.013,0Z" fill="#fff"/>
      <path id="Path_22" data-name="Path 22" d="M121.537,769.914c0-.085,0-.17,0-.255a.242.242,0,0,1,.077-.166.1.1,0,0,0,.025-.056,2.928,2.928,0,0,1,.027-.4,1.114,1.114,0,0,1,.814-.9,1.231,1.231,0,0,1,1.083.15,1.132,1.132,0,0,1,.506.836c.011.1.007.2.009.3a.072.072,0,0,0,.025.061.24.24,0,0,1,.083.189c0,.16,0,.32,0,.48a.243.243,0,0,1-.253.249.162.162,0,0,0-.177.1,1.046,1.046,0,0,1-.563.516.891.891,0,0,1-.879-.118,1.191,1.191,0,0,1-.389-.47.04.04,0,0,0-.044-.028.794.794,0,0,1-.138,0,.247.247,0,0,1-.207-.247c0-.083,0-.167,0-.25Zm.174.008h0v.234a.076.076,0,0,0,.083.083c.056,0,.112,0,.167,0a.094.094,0,0,1,.1.065,1.189,1.189,0,0,0,.093.181.839.839,0,0,0,.719.428.722.722,0,0,0,.414-.131,1.026,1.026,0,0,0,.379-.476.1.1,0,0,1,.1-.068c.052,0,.1,0,.155,0a.08.08,0,0,0,.091-.089c0-.152,0-.3,0-.455a.107.107,0,0,0-.055-.091.326.326,0,0,1-.153-.193.48.48,0,0,0-.235-.33,2.811,2.811,0,0,0-.29-.146.986.986,0,0,0-.591-.073,1.486,1.486,0,0,0-.544.225.472.472,0,0,0-.219.3.368.368,0,0,1-.172.223.11.11,0,0,0-.039.071C121.708,769.763,121.711,769.843,121.711,769.922Zm2.184-.779s0,0,0-.005a.993.993,0,0,0-.542-.765,1.027,1.027,0,0,0-.537-.108.982.982,0,0,0-.87.51.928.928,0,0,0-.122.372,1.376,1.376,0,0,1,2.071,0Z" fill="#fff"/>
      <path id="Path_23" data-name="Path 23" d="M122.3,774.491a.07.07,0,0,0,.084-.023.1.1,0,0,1,.155,0,.078.078,0,0,0,.088.021.177.177,0,0,0-.186-.131A.159.159,0,0,0,122.3,774.491Z" fill="#fff"/>
      <path id="Path_24" data-name="Path 24" d="M121.956,772.422c.027.005.064-.016.064.03a.046.046,0,0,1-.033.032C121.955,772.48,121.945,772.457,121.956,772.422Z" fill="#fff"/>
      <path id="Path_25" data-name="Path 25" d="M122.718,769.54c.042-.015.04-.09,0-.17.093,0,.184,0,.276,0s.16-.016.24-.023a.53.53,0,0,1,.08,0,.178.178,0,0,1,.18.145,2.167,2.167,0,0,1,.043.241c.007.049.027.069.076.066.02,0,.039,0,.059,0a.087.087,0,0,1,.025.17.3.3,0,0,1-.184-.005.234.234,0,0,1-.151-.2c-.008-.066-.02-.132-.03-.2a.043.043,0,0,0-.052-.04c-.075.007-.149.017-.224.019C122.942,769.543,122.832,769.54,122.718,769.54Z" fill="#fff"/>
      <path id="Path_26" data-name="Path 26" d="M122.193,769.679a.211.211,0,0,0,.16.081.215.215,0,0,1-.173.21.278.278,0,0,1-.091,0,.081.081,0,0,1-.066-.084.084.084,0,0,1,.07-.085c.085-.019.085-.019.1-.107Z" fill="#fff"/>
      <path id="Path_27" data-name="Path 27" d="M122.688,769.543l-.044-.007a.624.624,0,0,0-.02-.069.181.181,0,0,0-.3-.065.138.138,0,0,0,.01.2c.046.028.036.057.026.09a.2.2,0,0,1-.136-.143.113.113,0,0,1-.006-.025.188.188,0,0,1,.187-.177c.064,0,.128,0,.192.006a.057.057,0,0,1,.054.039A.234.234,0,0,1,122.688,769.543Z" fill="#fff"/>
      <path id="Path_28" data-name="Path 28" d="M122.385,769.576a.088.088,0,0,1,0-.128.1.1,0,0,1,.119-.015.32.32,0,0,1,.08.1l-.09-.012c-.014,0-.029,0-.043,0A.059.059,0,0,0,122.385,769.576Z" fill="#fff"/>
    </g>
  </g>
</svg>
