<svg xmlns="http://www.w3.org/2000/svg" width="4.182" height="5.859" viewBox="0 0 4.182 5.859">
  <g id="Group_14" data-name="Group 14" transform="translate(-138.938 -768.547)">
    <g id="Group_13" data-name="Group 13">
      <path id="Path_29" data-name="Path 29" d="M140.293,772.175a1.744,1.744,0,0,1-.956-1.1,1.717,1.717,0,0,1,.086-1.246,1.766,1.766,0,0,1,3.354.988,1.716,1.716,0,0,1-.687,1.158,1.743,1.743,0,0,1-1.3.342l-.1.288c-.092.268-.183.536-.275.8a.471.471,0,1,1-.79-.476l.658-.747Zm.26-.294-.038-.015a1.4,1.4,0,0,1-.872-1.49,1.377,1.377,0,0,1,.519-.9,1.36,1.36,0,0,1,.913-.3c.045,0,.067.022.066.058s-.025.053-.072.055a2.17,2.17,0,0,0-.256.019,1.274,1.274,0,0,0-1.053,1.44,1.258,1.258,0,0,0,.846,1.036.037.037,0,0,0,.049-.013q.165-.189.331-.376c.027-.031.052-.038.079-.023s.036.043.022.083c-.02.06-.041.12-.062.181l-.074.216a1.308,1.308,0,0,0,.371-.03,1.285,1.285,0,0,0,.967-1.014,2.471,2.471,0,0,0,.022-.285c0-.042.026-.068.064-.064a.056.056,0,0,1,.05.065,1.87,1.87,0,0,1-.012.237,1.38,1.38,0,0,1-.835,1.095,1.3,1.3,0,0,1-.641.11c-.009,0-.026.005-.028.011-.028.077-.054.154-.081.232a1.648,1.648,0,1,0-.452-.121Zm-.645.906a.487.487,0,0,1,.5.29l.478-1.393-.006,0Zm.063.828a.357.357,0,1,0-.36-.356A.358.358,0,0,0,139.971,773.615Z" fill="#fff"/>
      <path id="Path_30" data-name="Path 30" d="M138.938,771.477v-2.425a.49.49,0,0,1,.433-.5.558.558,0,0,1,.058,0h3.2a.488.488,0,0,1,.49.483c0,.056,0,.113,0,.169s-.021.065-.056.066-.056-.023-.057-.064c0-.066,0-.133,0-.2a.374.374,0,0,0-.386-.342h-3.174a.379.379,0,0,0-.392.391v4.85a.379.379,0,0,0,.392.392h3.17a.38.38,0,0,0,.393-.394v-3.2c0-.011,0-.022,0-.033a.055.055,0,0,1,.056-.048.054.054,0,0,1,.055.049.217.217,0,0,1,0,.036v3.2a.49.49,0,0,1-.438.5.416.416,0,0,1-.061,0h-3.18a.488.488,0,0,1-.5-.5Z" fill="#fff"/>
      <path id="Path_31" data-name="Path 31" d="M141.366,773.236h-.192c-.058,0-.075-.017-.075-.076v-.592c0-.055.019-.075.074-.075h1.617c.055,0,.074.02.074.075v.6c0,.053-.019.072-.072.072H142.6v.238c0,.013,0,.026,0,.039a.054.054,0,0,1-.053.055h-1.1c-.067,0-.081-.014-.081-.082Zm1.383-.626h-1.534v.51h.151v-.058c0-.043.02-.063.064-.063h1.1c.044,0,.064.021.065.066v.055h.151Zm-.268.843v-.34h-1v.34Z" fill="#fff"/>
      <path id="Path_32" data-name="Path 32" d="M141.029,773.894h.927a.215.215,0,0,1,.036,0,.053.053,0,0,1,.046.055.057.057,0,0,1-.048.057h-1.92a.056.056,0,0,1-.051-.054.057.057,0,0,1,.049-.059c.011,0,.022,0,.033,0Z" fill="#fff"/>
      <path id="Path_33" data-name="Path 33" d="M139.4,768.794a.208.208,0,0,1,.208.209.208.208,0,1,1-.416,0A.207.207,0,0,1,139.4,768.794Zm0,.3a.091.091,0,0,0,.094-.091.094.094,0,1,0-.187,0A.092.092,0,0,0,139.4,769.094Z" fill="#fff"/>
      <path id="Path_34" data-name="Path 34" d="M142.656,768.794a.207.207,0,0,1,.208.205.208.208,0,1,1-.208-.205Zm0,.3a.093.093,0,0,0,.1-.09.094.094,0,1,0-.187,0A.092.092,0,0,0,142.655,769.094Z" fill="#fff"/>
      <path id="Path_35" data-name="Path 35" d="M142.658,774.159a.208.208,0,1,1,.206-.208A.209.209,0,0,1,142.658,774.159Zm-.1-.208a.094.094,0,1,0,.093-.093A.094.094,0,0,0,142.563,773.951Z" fill="#fff"/>
      <path id="Path_36" data-name="Path 36" d="M139.4,774.159a.208.208,0,0,1,0-.416.208.208,0,1,1,0,.416Zm.093-.208a.094.094,0,1,0-.092.094A.094.094,0,0,0,139.494,773.951Z" fill="#fff"/>
      <path id="Path_37" data-name="Path 37" d="M143.119,770.331c0,.017,0,.035,0,.052a.054.054,0,0,1-.056.052.054.054,0,0,1-.056-.051,1.009,1.009,0,0,1,0-.11.053.053,0,0,1,.055-.049.054.054,0,0,1,.056.048.561.561,0,0,1,0,.058Z" fill="#fff"/>
      <path id="Path_38" data-name="Path 38" d="M143.119,769.55c0,.018,0,.035,0,.052a.055.055,0,0,1-.055.053.054.054,0,0,1-.057-.054c0-.034,0-.069,0-.1a.052.052,0,0,1,.054-.052.054.054,0,0,1,.058.053C143.12,769.516,143.119,769.533,143.119,769.55Z" fill="#fff"/>
      <path id="Path_39" data-name="Path 39" d="M143.007,769.937c0-.016,0-.032,0-.049a.053.053,0,0,1,.057-.053.054.054,0,0,1,.055.052c0,.035,0,.07,0,.1a.054.054,0,0,1-.057.054.054.054,0,0,1-.055-.053C143.006,769.974,143.007,769.956,143.007,769.937Z" fill="#fff"/>
      <path id="Path_40" data-name="Path 40" d="M139.967,773.516a.258.258,0,0,0,.26-.226c0-.045-.014-.076-.05-.08s-.057.019-.064.063l0,.013a.145.145,0,0,1-.287-.016.147.147,0,0,1,.141-.159c.04,0,.063-.026.061-.06S140,773,139.96,773a.259.259,0,0,0,.007.517Z" fill="#fff"/>
      <path id="Path_41" data-name="Path 41" d="M141.029,771.014a.448.448,0,1,1,.448-.446A.45.45,0,0,1,141.029,771.014Zm-.273-.253.064.068a.249.249,0,0,1,.418,0l.064-.068a.248.248,0,0,1-.026-.413l-.038-.046a.251.251,0,0,1-.209.116.247.247,0,0,1-.206-.11l-.045.038A.25.25,0,0,1,140.756,770.761Zm.374-.513a.323.323,0,0,0-.2,0A.122.122,0,0,0,141.13,770.248Zm-.413.2a.317.317,0,0,0-.011.2A.121.121,0,0,0,140.717,770.449Zm.635.2a.328.328,0,0,0-.012-.2A.121.121,0,0,0,141.352,770.65Zm-.221.233a.122.122,0,0,0-.2,0A.327.327,0,0,0,141.131,770.883Z" fill="#fff"/>
      <path id="Path_42" data-name="Path 42" d="M142.206,769.827c-.013.015-.024.038-.041.044a.071.071,0,0,1-.059-.01.575.575,0,0,1-.075-.1.049.049,0,0,1,.013-.067.048.048,0,0,1,.068,0,1.247,1.247,0,0,1,.086.117l0,.016Z" fill="#fff"/>
      <path id="Path_43" data-name="Path 43" d="M141.922,769.517c-.012.016-.021.037-.036.045a.075.075,0,0,1-.057,0,.7.7,0,0,1-.09-.064.057.057,0,0,1-.012-.076.055.055,0,0,1,.074-.018.829.829,0,0,1,.1.071C141.908,769.481,141.912,769.5,141.922,769.517Z" fill="#fff"/>
      <path id="Path_44" data-name="Path 44" d="M142.3,770.256a.172.172,0,0,1-.039-.041.628.628,0,0,1-.033-.1.057.057,0,0,1,.034-.071.055.055,0,0,1,.072.033.878.878,0,0,1,.036.11C142.383,770.224,142.353,770.257,142.3,770.256Z" fill="#fff"/>
      <path id="Path_45" data-name="Path 45" d="M141.551,769.308a.055.055,0,0,1-.072.055l-.1-.032a.056.056,0,0,1-.038-.072.055.055,0,0,1,.072-.036c.033.009.066.021.1.032A.051.051,0,0,1,141.551,769.308Z" fill="#fff"/>
      <path id="Path_46" data-name="Path 46" d="M139.967,773.516a.259.259,0,0,1-.007-.517c.039,0,.064.019.066.052s-.021.057-.061.06a.146.146,0,1,0,.009.292.145.145,0,0,0,.137-.117l0-.013c.007-.044.031-.067.064-.063s.055.035.05.08A.258.258,0,0,1,139.967,773.516Z" fill="#fff"/>
    </g>
  </g>
</svg>
