<svg xmlns="http://www.w3.org/2000/svg" width="7.236" height="2.377" viewBox="0 0 7.236 2.377">
  <g id="Group_16" data-name="Group 16" transform="translate(-170.808 -770.288)">
    <g id="Group_15" data-name="Group 15">
      <path id="Path_47" data-name="Path 47" d="M174.427,772.663c-1.165,0-2.33,0-3.494,0-.1,0-.125-.026-.124-.123,0-.479,0-.957,0-1.436,0-.081.01-.129.107-.118.072.007.134-.026.13-.1s-.063-.1-.132-.089c-.088.011-.109-.032-.1-.111a2.173,2.173,0,0,0,0-.291c-.007-.088.03-.1.11-.1.7,0,1.4,0,2.108,0h4.839c.2,0,.173-.015.175.18,0,.067-.005.134,0,.2.01.1-.024.132-.123.128a.159.159,0,0,0-.107.066c-.012.018.006.074.028.094a.143.143,0,0,0,.1.029c.08,0,.1.029.1.107,0,.482,0,.964,0,1.446,0,.1-.024.125-.123.125C176.756,772.661,175.591,772.663,174.427,772.663Zm-3.516-.567h7.024v-1.013c-.149-.016-.216-.068-.22-.179a.17.17,0,0,1,.032-.12,1.247,1.247,0,0,1,.188-.117v-.284H170.91v.3c.168.037.232.1.229.208s-.069.169-.228.194Zm.442.471h.122v-.323h.136v.328l.123-.01v-.324l.123.006v.319h.123v-.32h.131v.319h.124v-.318h.124v.327l.122-.007v-.318h.134v.326l.117-.009v-.318h.131v.326l.119-.005v-.323h.13v.328l.123-.007v-.322h.126v.322h.124v-.322h.129v.32h.119v-.319h.132v.321h.123v-.326l.13.006v.327l.115-.007v-.32h.132v.32h.125v-.327l.128.007v.327l.117-.007v-.32h.133v.322h.124v-.329l.124.007v.317h.121v-.316h.136v.327l.12-.009v-.325l.125.006v.321h.117v-.321h.138v.328l.122-.008v-.32h.121v.32h.125v-.319h.135v.327l.119-.007v-.327l.124.006v.32h.124v-.318h.136v.326l.119-.007v-.327l.125.007v.318h.12v-.32h.133v.328l.123-.007v-.32h.125v.328l.121-.008v-.32h.134v.325c.07-.022.09-.218.048-.363H170.9c0,.106,0,.206,0,.306,0,.019.023.037.035.056a.2.2,0,0,0,.029-.063c0-.086,0-.172,0-.262h.137v.329l.123-.009v-.318h.121Z" fill="#fff"/>
      <path id="Path_48" data-name="Path 48" d="M173.059,771.313c0,.2,0,.408,0,.612,0,.06-.019.083-.081.082q-.311,0-.621,0c-.073,0-.1-.025-.1-.1q0-.6,0-1.2c0-.069.025-.093.1-.092q.311,0,.622,0c.066,0,.086.025.085.089,0,.2,0,.407,0,.611Zm-.7.6h.6v-1.191h-.6Z" fill="#fff"/>
      <path id="Path_49" data-name="Path 49" d="M173.945,771.307c0,.2,0,.4,0,.6,0,.071-.024.1-.1.1-.207,0-.415,0-.622,0-.06,0-.083-.023-.083-.083q0-.612,0-1.223c0-.066.026-.089.09-.088.207,0,.414,0,.621,0,.07,0,.094.022.093.092,0,.2,0,.4,0,.6Zm-.1.6v-1.2h-.6v1.2Z" fill="#fff"/>
      <path id="Path_50" data-name="Path 50" d="M174.908,771.3c0-.194,0-.388,0-.581,0-.071.015-.1.094-.1q.306.006.612,0c.077,0,.1.031.1.1q0,.6,0,1.194c0,.074-.029.1-.1.1-.2,0-.4,0-.6,0-.075,0-.1-.026-.1-.1,0-.2,0-.408,0-.612Zm.1-.58v1.2h.593v-1.2Z" fill="#fff"/>
      <path id="Path_51" data-name="Path 51" d="M174.829,771.309c0,.194,0,.388,0,.581,0,.095-.034.122-.124.119-.194-.006-.388,0-.582,0-.079,0-.1-.029-.1-.106,0-.4,0-.789,0-1.183,0-.077.019-.108.1-.106.2.005.408,0,.612,0,.07,0,.094.025.092.094,0,.2,0,.4,0,.6Zm-.106.606v-1.2h-.592v1.2Z" fill="#fff"/>
      <path id="Path_52" data-name="Path 52" d="M175.791,771.307c0-.2,0-.4,0-.6,0-.069.022-.094.092-.092q.306,0,.612,0c.071,0,.094.026.094.093q0,.608,0,1.214c0,.066-.027.088-.09.087-.2,0-.408,0-.612,0-.074,0-.1-.026-.1-.1,0-.2,0-.4,0-.6Zm.7.607v-1.2h-.6v1.2Z" fill="#fff"/>
      <path id="Path_53" data-name="Path 53" d="M172.178,771.317c0,.2,0,.395,0,.592,0,.072-.016.1-.094.1-.207,0-.414,0-.621,0-.059,0-.086-.023-.086-.082v-1.234c0-.06.028-.081.087-.08.207,0,.415,0,.622,0,.071,0,.093.023.092.093C172.176,770.909,172.178,771.113,172.178,771.317Zm-.7.595h.6v-1.194h-.6Z" fill="#fff"/>
      <path id="Path_54" data-name="Path 54" d="M176.673,772.007V771.6c0-.291,0-.582,0-.873,0-.1.029-.119.12-.116.194.006.388,0,.582,0,.069,0,.1.024.1.092q0,.607,0,1.214c0,.047-.008.088-.068.088Zm.1-1.292v1.2h.6v-1.2Z" fill="#fff"/>
    </g>
  </g>
</svg>
