<svg xmlns="http://www.w3.org/2000/svg" width="4.999" height="5.094" viewBox="0 0 4.999 5.094">
  <g id="Group_10" data-name="Group 10" transform="translate(-103.664 -768.745)">
    <g id="Group_9" data-name="Group 9">
      <path id="Path_20" data-name="Path 20" d="M108.663,772.858a1.336,1.336,0,0,1-.051.373.176.176,0,0,1-.176.147.2.2,0,0,1-.183-.156.575.575,0,0,0-.228-.323.4.4,0,0,0-.478.072.2.2,0,0,0,.041.345,1.6,1.6,0,0,0,.221.105.287.287,0,0,1,.185.194.169.169,0,0,1-.153.214,1.4,1.4,0,0,1-.613-.06.959.959,0,0,1-.53-.4.815.815,0,0,1-.112-.528,1.39,1.39,0,0,1,.029-.169.063.063,0,0,0-.015-.063c-.222-.264-.437-.534-.667-.791-.354-.4-.718-.784-1.077-1.175a.045.045,0,0,0-.054-.015.942.942,0,0,1-.518.027.747.747,0,0,1-.468-.357,1.086,1.086,0,0,1-.141-.722c.01-.076.025-.151.042-.225a.171.171,0,0,1,.177-.15.2.2,0,0,1,.183.155.519.519,0,0,0,.279.351.4.4,0,0,0,.425-.1l.017-.019a.179.179,0,0,0-.02-.3.944.944,0,0,0-.226-.121.455.455,0,0,1-.167-.112.184.184,0,0,1,.031-.285.175.175,0,0,1,.07-.023,1.367,1.367,0,0,1,.715.1.89.89,0,0,1,.483.461.831.831,0,0,1,.059.424c-.006.06-.022.118-.029.177a.076.076,0,0,0,.013.055c.32.424.678.815,1.034,1.207.234.256.473.506.709.76a.046.046,0,0,0,.058.013.941.941,0,0,1,.518-.026.747.747,0,0,1,.465.355A1.035,1.035,0,0,1,108.663,772.858Zm-1.006.746a.5.5,0,0,1-.053-.024,1.958,1.958,0,0,1-.222-.144.389.389,0,0,1-.118-.435.632.632,0,0,1,.725-.359.666.666,0,0,1,.4.343l.024.044a.846.846,0,0,0-.142-.7.51.51,0,0,0-.4-.208.9.9,0,0,0-.4.084c-.033.015-.053.017-.079-.016-.051-.064-.108-.124-.164-.184-.4-.435-.8-.867-1.193-1.307-.185-.207-.352-.43-.527-.646a.161.161,0,0,1-.028-.153,1.158,1.158,0,0,0,.036-.192.589.589,0,0,0-.271-.577.987.987,0,0,0-.518-.163c-.018,0-.037,0-.055,0a.105.105,0,0,0,.039.027,1.612,1.612,0,0,1,.176.1.427.427,0,0,1,.2.379.432.432,0,0,1-.136.278.616.616,0,0,1-.567.193.6.6,0,0,1-.406-.281c-.026-.037-.047-.077-.073-.12l-.006.022a.863.863,0,0,0,.158.686.5.5,0,0,0,.39.2.89.89,0,0,0,.416-.088.042.042,0,0,1,.059.014c.114.129.23.258.346.385.4.436.793.869,1.185,1.308.129.144.242.3.362.453a.157.157,0,0,1,.027.153.893.893,0,0,0-.026.114.613.613,0,0,0,.163.573.844.844,0,0,0,.348.2A.83.83,0,0,0,107.657,773.6Z" fill="#fff"/>
    </g>
  </g>
</svg>
